# xmcd CD database file
#
# Track frame offsets:
#	150
#	41396
#	81147
#	115134
#	145294
#
# Disc length: 2434 seconds
#
# Revision: 1
# Processed by: cddbd v1.5.2PL0 Copyright (c) Steve Scherf et al.
# Submitted via: CDex 1.70beta2
#
DISCID=39098005
DTITLE=John Carter - Flight For Four
DYEAR=1969
DGENRE=Jazz
TTITLE0=Call To The Festival 
TTITLE1=The Second Set
TTITLE2=Woman
TTITLE3=Abstractions For Three Lovers
TTITLE4=Domino
EXTD=YEAR: 1969
EXTT0=
EXTT1=
EXTT2=
EXTT3=
EXTT4=
PLAYORDER=
